<?xml version="1.0" standalone="no"?>
<!DOCTYPE svg PUBLIC "-//W3C//DTD SVG 20010904//EN"
 "http://www.w3.org/TR/2001/REC-SVG-20010904/DTD/svg10.dtd">
<svg version="1.0" xmlns="http://www.w3.org/2000/svg"
 width="3508.000000pt" height="2480.000000pt" viewBox="0 0 3508.000000 2480.000000"
 preserveAspectRatio="xMidYMid meet">

<g transform="translate(0.000000,2480.000000) scale(0.100000,-0.100000)"
fill="#000000" stroke="none">
<path d="M787 21462 l-87 -87 0 -70 0 -70 96 -49 c182 -92 333 -274 388 -467
63 -223 78 -1090 74 -4154 -4 -2036 -5 -2229 -21 -2324 -30 -184 -79 -324
-152 -437 -58 -89 -179 -201 -288 -268 l-97 -60 0 -64 0 -65 87 -89 88 -89
2135 4 c2103 4 2194 5 2560 38 1105 97 1930 433 2646 1079 395 356 743 851
966 1369 445 1039 460 2212 41 3271 -210 530 -511 982 -924 1385 -671 655
-1483 1028 -2534 1165 -499 65 -718 70 -2930 70 l-1960 0 -88 -88z m4144
-1562 c877 -89 1438 -703 1633 -1785 90 -496 93 -1070 10 -1555 -99 -583 -338
-1065 -695 -1404 -242 -230 -516 -352 -914 -406 -44 -6 -184 -13 -311 -17
-239 -6 -384 3 -541 34 l-83 16 0 2533 0 2532 28 6 c50 10 276 37 382 45 157
12 375 12 491 1z"/>
<path d="M25388 21463 l-88 -88 0 -71 0 -71 93 -46 c151 -75 282 -214 356
-380 47 -103 60 -190 82 -542 14 -205 29 -5650 17 -5854 -14 -238 -48 -383
-124 -531 -77 -149 -193 -266 -361 -365 l-63 -36 0 -67 0 -67 88 -88 89 -88
2134 4 c2102 4 2193 5 2559 38 1035 91 1835 398 2513 964 953 796 1497 2063
1437 3344 -53 1106 -479 2077 -1230 2805 -716 692 -1599 1071 -2750 1181 -406
38 -424 38 -2560 42 l-2105 4 -87 -88z m4143 -1563 c995 -101 1581 -880 1689
-2244 13 -167 13 -545 0 -717 -59 -756 -297 -1341 -714 -1754 -253 -251 -509
-371 -921 -432 -93 -13 -186 -17 -410 -18 -279 0 -334 4 -492 36 l-53 10 0
2534 0 2533 23 5 c38 9 277 38 387 46 158 12 375 12 491 1z"/>
<path d="M11827 19032 c-54 -55 -57 -60 -57 -107 l0 -50 91 -60 c108 -71 192
-158 227 -235 20 -43 26 -70 25 -130 0 -86 -20 -163 -100 -390 -93 -262 -1351
-3646 -1415 -3805 -144 -357 -279 -560 -502 -755 -81 -71 -86 -77 -86 -115 0
-36 6 -47 63 -103 l63 -62 940 0 940 0 62 63 c56 56 62 67 62 104 0 40 -2 42
-114 132 -114 91 -157 135 -192 201 -16 29 -19 55 -18 145 1 143 28 235 206
704 l132 351 827 0 827 0 11 -27 c6 -16 81 -219 167 -453 l157 -425 1 -111 c1
-105 -1 -113 -32 -176 -39 -81 -94 -132 -238 -224 l-104 -67 0 -46 c0 -44 4
-50 63 -109 l63 -62 1385 0 1385 0 62 63 c55 56 62 67 62 103 0 38 -5 44 -91
120 -129 112 -304 296 -373 393 -32 45 -87 137 -120 204 -70 139 -97 206
-1184 2962 l-797 2020 -1170 3 -1171 2 -57 -58z m1363 -2476 c121 -323 219
-590 217 -592 -2 -2 -204 -3 -449 -2 l-446 3 214 595 c118 327 217 602 220
610 5 12 8 11 14 -5 4 -11 108 -285 230 -609z"/>
<path d="M15852 19027 c-90 -91 -88 -103 31 -226 102 -105 151 -172 220 -301
54 -101 -12 64 867 -2190 391 -1004 734 -1877 761 -1940 141 -324 322 -556
572 -733 215 -152 495 -288 823 -400 238 -81 703 -221 711 -214 8 9 2163 5878
2170 5910 5 25 -2 37 -58 93 l-63 64 -826 0 -826 0 -57 -58 c-54 -55 -57 -60
-57 -108 l0 -51 78 -45 c234 -137 312 -242 320 -428 5 -121 -9 -176 -131 -522
-51 -144 -286 -815 -523 -1490 -236 -675 -432 -1228 -435 -1228 -7 0 -1167
3128 -1224 3300 -78 238 -98 325 -97 425 l0 90 -56 58 -56 57 -1041 0 -1041 0
-62 -63z"/>
<path d="M22247 19032 c-54 -55 -57 -60 -57 -108 l0 -51 79 -51 c177 -115 263
-268 292 -517 7 -60 9 -794 7 -2215 -4 -1949 -5 -2131 -21 -2192 -50 -200
-150 -338 -309 -427 l-48 -26 0 -55 c0 -53 2 -56 57 -112 l57 -58 1236 0 1236
0 62 63 c62 63 63 65 60 112 -3 48 -4 50 -63 84 -130 76 -237 214 -279 362
-37 131 -38 150 -37 2319 0 1882 2 2135 15 2212 19 103 55 204 97 270 40 62
143 157 213 197 l56 32 0 52 c0 49 -2 54 -57 109 l-57 58 -1241 0 -1241 0 -57
-58z"/>
<path d="M4265 11203 c-776 -46 -1356 -206 -1875 -518 -465 -280 -813 -716
-979 -1225 -141 -435 -136 -938 15 -1390 190 -572 608 -1024 1312 -1419 166
-94 490 -246 857 -404 198 -85 421 -183 495 -217 724 -332 1000 -578 1000
-891 0 -245 -113 -404 -375 -530 -195 -93 -414 -138 -715 -146 -672 -18 -1477
201 -2148 586 -122 71 -305 189 -373 243 -20 15 -42 28 -48 28 -16 0 -251
-159 -251 -169 0 -23 424 -1727 432 -1738 14 -17 432 -153 653 -213 360 -96
819 -178 1205 -215 529 -49 1206 -37 1665 31 775 114 1436 423 1892 885 194
196 317 368 437 610 107 216 179 442 223 704 25 154 25 593 0 740 -111 629
-441 1120 -1071 1591 -396 297 -813 503 -1786 884 -473 184 -730 353 -823 539
-35 69 -37 80 -37 166 0 231 121 388 381 496 164 67 326 94 564 92 484 -2
1003 -158 1548 -465 l87 -49 120 68 120 68 0 737 0 737 -212 70 c-546 179
-1070 276 -1682 311 -161 9 -503 11 -631 3z"/>
<path d="M21380 11200 c-1209 -83 -2219 -450 -3040 -1104 -161 -129 -478 -446
-606 -606 -391 -491 -647 -1051 -758 -1660 -50 -273 -61 -402 -61 -745 1 -343
12 -483 61 -755 168 -925 634 -1717 1355 -2307 1103 -901 2750 -1264 4379
-967 1562 286 2798 1161 3350 2374 240 527 350 1054 350 1674 0 354 -22 588
-85 901 -200 1003 -750 1827 -1595 2389 -661 440 -1476 706 -2420 791 -205 19
-750 27 -930 15z m500 -1495 c592 -95 1065 -475 1385 -1114 162 -322 276 -681
345 -1086 44 -256 60 -433 67 -715 15 -649 -87 -1115 -324 -1475 -306 -465
-810 -784 -1360 -861 -179 -25 -439 -16 -597 20 -508 117 -970 473 -1242 958
-278 495 -482 1239 -510 1860 -15 343 56 811 171 1123 45 122 150 342 211 443
307 506 784 805 1374 862 123 11 359 4 480 -15z"/>
<path d="M8187 10942 l-87 -87 0 -61 0 -60 67 -39 c268 -157 400 -372 443
-720 16 -127 16 -5693 0 -5820 -40 -328 -159 -539 -386 -684 -133 -85 -124
-75 -124 -139 l0 -57 88 -88 87 -87 1661 0 1661 0 86 88 87 87 0 56 c0 64 -2
66 -97 123 -242 144 -371 365 -414 706 -14 111 -15 281 -11 1503 l2 907 945 0
946 0 -4 -1202 c-4 -1280 -3 -1256 -52 -1425 -63 -216 -185 -375 -379 -494
l-86 -52 0 -66 0 -66 83 -83 82 -82 1665 0 1665 0 83 83 82 82 0 66 0 66 -87
53 c-56 34 -119 84 -174 140 -73 73 -94 102 -138 191 -54 110 -82 204 -103
347 -19 128 -19 5746 0 5874 48 327 178 537 423 682 l79 47 0 67 0 67 -83 83
-82 82 -1665 0 -1665 0 -83 -83 -82 -82 0 -66 0 -66 88 -53 c127 -77 244 -199
304 -315 53 -103 81 -190 105 -319 15 -80 17 -206 20 -1038 l4 -948 -946 0
-945 0 -2 648 c-5 1093 -3 1194 16 1320 22 144 47 225 104 337 61 119 177 236
310 314 l92 54 0 61 0 61 -88 88 -87 87 -1660 0 -1660 0 -88 -88z"/>
<path d="M26942 10948 l-83 -84 3 -69 3 -68 70 -42 c249 -152 372 -345 422
-665 17 -109 18 -263 18 -2955 0 -2695 -1 -2846 -18 -2955 -49 -307 -163 -496
-391 -644 l-106 -70 0 -66 0 -65 83 -83 82 -82 1650 0 1650 0 83 83 82 82 -1
60 0 60 -61 50 c-79 65 -187 187 -250 283 -113 174 -172 350 -209 622 -8 57
-13 400 -16 1050 l-4 965 283 -3 c597 -7 1080 62 1563 223 974 325 1557 959
1685 1835 109 746 -111 1421 -621 1904 -169 161 -352 285 -581 396 -358 173
-758 258 -1403 301 -110 7 -816 13 -2010 16 l-1840 5 -83 -84z m3168 -1440
c531 -126 781 -537 784 -1288 1 -311 -61 -561 -196 -797 -154 -268 -354 -455
-680 -637 l-68 -37 0 1396 0 1396 38 -7 c20 -3 75 -15 122 -26z"/>
</g>
</svg>
